<svg width="100" height="100" viewBox="0 0 100 100" xmlns="http://www.w3.org/2000/svg">
  <!-- Círculo dorado -->
  <circle cx="50" cy="50" r="48" fill="none" stroke="#FFD700" stroke-width="4" />
  
  <!-- Ícono de pájaro minimalista estilo Twitter en verde, más grande -->
  <g transform="scale(1.3) translate(-12,-10)">
    <path 
      d="M75,35c-1.8,0.8-3.8,1.3-5.9,1.5c2.1-1.2,3.7-3.1,4.5-5.3c-2,1.1-4.1,1.9-6.4,2.3
         c-1.9-2-4.7-3.2-7.7-3.2c-5.8,0-10.5,4.7-10.5,10.5c0,0.8,0.1,1.5,0.3,2.3c-8.7-0.4-16.4-4.6-21.6-10.9
         c-0.9,1.5-1.4,3.1-1.4,4.9c0,3.4,1.7,6.4,4.4,8.2c-1.6,0-3.1-0.5-4.4-1.2v0.1c0,4.8,3.4,8.8,7.8,9.7
         c-0.8,0.2-1.6,0.3-2.5,0.3c-0.6,0-1.2,0-1.8-0.1c1.2,3.8,4.7,6.6,8.9,6.7c-3.2,2.5-7.1,4-11.4,4
         c-0.7,0-1.4,0-2.1-0.1c4.1,2.6,9,4.1,14.3,4.1c17.2,0,26.6-14.3,26.6-26.6c0-0.4,0-0.8,0-1.2
         C72.2,38.8,73.8,37,75,35z" 
      fill="#32CD32" />
  </g>
</svg>
